<svg xmlns="http://www.w3.org/2000/svg" width="37.098" height="36.983" viewBox="0 0 37.098 36.983">
  <g id="Pfad_1" data-name="Pfad 1" transform="translate(-9.774 -9.309)" fill="none" stroke-linejoin="round">
    <path d="M23.836,13.309V27.732H13.774L28.335,42.292,42.872,27.755,32.834,27.8V13.309Z" stroke="none"/>
    <path d="M 23.83639907836914 13.30914688110352 L 23.83639907836914 27.73153686523438 L 13.77426910400391 27.73153686523438 L 28.33504867553711 42.29232788085938 L 42.87191009521484 27.75546646118164 L 32.83370971679688 27.80073738098145 L 32.83370971679688 13.30914688110352 L 23.83639907836914 13.30914688110352 M 23.83639907836914 9.309146881103516 L 32.83370971679688 9.309146881103516 C 35.04285049438477 9.309146881103516 36.83370971679688 11.10000610351562 36.83370971679688 13.30914688110352 L 36.83370971679688 23.78265762329102 L 42.8538703918457 23.75550651550293 C 42.85990524291992 23.75547981262207 42.86600112915039 23.75546646118164 42.87203216552734 23.75546646118164 C 44.4859504699707 23.75544166564941 45.94253158569336 24.72564888000488 46.56396865844727 26.21640777587891 C 47.18772125244141 27.71273803710938 46.84664916992188 29.43757820129395 45.70034027099609 30.58389663696289 L 31.16347885131836 45.12075805664062 C 30.413330078125 45.87089538574219 29.39591979980469 46.29232788085938 28.33504867553711 46.29232788085938 C 27.27417945861816 46.29232788085938 26.25676918029785 45.87089538574219 25.50662040710449 45.12075805664062 L 10.94583892822266 30.55996704101562 C 9.801849365234375 29.41596794128418 9.459629058837891 27.69549751281738 10.07875061035156 26.20080757141113 C 10.69787979125977 24.70610809326172 12.15641784667969 23.73153686523438 13.77426910400391 23.73153686523438 L 19.83639907836914 23.73153686523438 L 19.83639907836914 13.30914688110352 C 19.83639907836914 11.10000610351562 21.62725830078125 9.309146881103516 23.83639907836914 9.309146881103516 Z" stroke="none" fill="#588ec6"/>
  </g>
</svg>
