<svg xmlns="http://www.w3.org/2000/svg" width="12.5" height="13.058" viewBox="0 0 12.5 13.058">
  <path id="cog-solid_1_" data-name="cog-solid (1)" d="M30.984,16.2l-1.121-.648a5.071,5.071,0,0,0,0-1.848l1.121-.648a.318.318,0,0,0,.145-.369,6.557,6.557,0,0,0-1.44-2.49.317.317,0,0,0-.39-.061l-1.121.648a4.968,4.968,0,0,0-1.6-.924V8.565a.315.315,0,0,0-.247-.308,6.618,6.618,0,0,0-2.875,0,.315.315,0,0,0-.247.308v1.3a5.125,5.125,0,0,0-1.6.924l-1.119-.648a.313.313,0,0,0-.39.061,6.517,6.517,0,0,0-1.44,2.49.315.315,0,0,0,.145.369l1.121.648a5.071,5.071,0,0,0,0,1.848L18.8,16.2a.318.318,0,0,0-.145.369,6.557,6.557,0,0,0,1.44,2.49.317.317,0,0,0,.39.061l1.121-.648a4.968,4.968,0,0,0,1.6.924v1.3a.315.315,0,0,0,.247.308,6.618,6.618,0,0,0,2.875,0,.315.315,0,0,0,.247-.308V19.4a5.125,5.125,0,0,0,1.6-.924l1.121.648a.313.313,0,0,0,.39-.061,6.517,6.517,0,0,0,1.44-2.49A.325.325,0,0,0,30.984,16.2Zm-6.092.534A2.106,2.106,0,1,1,27,14.625,2.109,2.109,0,0,1,24.892,16.731Z" transform="translate(-18.644 -8.099)" fill="#395a7c"/>
</svg>
