<svg xmlns="http://www.w3.org/2000/svg" width="10" height="11.429" viewBox="0 0 10 11.429">
  <path id="copy-solid" d="M7.143,10v.893a.536.536,0,0,1-.536.536H.536A.536.536,0,0,1,0,10.893V2.679a.536.536,0,0,1,.536-.536H2.143V8.75A1.251,1.251,0,0,0,3.393,10Zm0-7.679V0H3.393a.536.536,0,0,0-.536.536V8.75a.536.536,0,0,0,.536.536H9.464A.536.536,0,0,0,10,8.75V2.857H7.679A.537.537,0,0,1,7.143,2.321Zm2.7-.693L8.371.157A.536.536,0,0,0,7.992,0H7.857V2.143H10V2.008a.536.536,0,0,0-.157-.379Z" fill="#dfe5eb"/>
</svg>
