<svg xmlns="http://www.w3.org/2000/svg" width="10" height="14.549" viewBox="0 0 10 14.549">
  <path id="question-solid" d="M30.611,0A5.506,5.506,0,0,0,25.72,2.587a.683.683,0,0,0,.147.934l1.226.929a.682.682,0,0,0,.945-.118,2.757,2.757,0,0,1,2.352-1.405c.874,0,1.956.563,1.956,1.41,0,.641-.529.97-1.392,1.454-1.007.564-2.339,1.267-2.339,3.024v.278a.682.682,0,0,0,.682.682h2.059a.682.682,0,0,0,.682-.682V8.929c0-1.218,3.56-1.269,3.56-4.564C35.6,1.883,33.023,0,30.611,0Zm-.285,10.612a1.968,1.968,0,1,0,1.968,1.968A1.971,1.971,0,0,0,30.326,10.612Z" transform="translate(-25.597)" fill="#395a7c"/>
</svg>
